# Blender 5.1.0
# www.blender.org
mtllib Chairs.mtl
o Cube.002
v 0.949569 0.949569 8.738242
v 0.949569 1.050431 8.738242
v 1.000000 1.050431 8.788673
v 1.000000 0.949569 8.788673
v 0.949569 -1.000000 8.788673
v 0.949569 -0.949569 8.738242
v 1.000000 -0.949569 8.788673
v 1.000000 0.949569 10.687811
v 1.000000 1.050431 10.687811
v 0.949569 1.050431 10.738242
v 0.949569 0.949569 10.738242
v 1.000000 -0.949569 10.687811
v 0.949569 -0.949569 10.738242
v 0.949569 -1.000000 10.687811
v -0.949569 0.949569 8.738242
v -1.000000 0.949569 8.788673
v -1.000000 1.050431 8.788673
v -0.949569 1.050431 8.738242
v -1.000000 -0.949569 8.788673
v -0.949569 -0.949569 8.738242
v -0.949569 -1.000000 8.788673
v -1.000000 0.949569 10.687811
v -0.949569 0.949569 10.738242
v -0.949569 1.050431 10.738242
v -1.000000 1.050431 10.687811
v -0.949569 -1.000000 10.687811
v -0.949569 -0.949569 10.738242
v -1.000000 -0.949569 10.687811
v 0.977829 4.404986 10.784514
v 0.949569 4.334499 10.738242
v 1.000000 4.334499 10.687811
v 1.046272 4.404986 10.716071
v -0.977829 4.404986 10.784514
v -1.046272 4.404986 10.716071
v -1.000000 4.334499 10.687811
v -0.949569 4.334499 10.738242
v 0.843806 4.480601 8.467075
v 0.940509 4.500657 8.402791
v 0.953653 4.476688 8.526534
v 0.861318 4.460546 8.563779
v -0.843806 4.480601 8.467075
v -0.861318 4.460546 8.563779
v -0.953653 4.476688 8.526534
v -0.940509 4.500657 8.402791
v 2.215716 4.982181 11.990494
v 2.151432 4.913647 11.958118
v 2.219875 4.913647 11.889675
v 2.307302 4.962851 11.953959
v 2.315645 5.027067 11.987677
v -2.215716 4.982181 11.990494
v -2.266147 4.984134 11.937472
v -2.219875 4.913647 11.889675
v -2.151432 4.913647 11.958118
v 1.668482 4.838031 7.642398
v 1.708317 4.858087 7.646558
v 1.748909 4.821367 7.731277
v 1.672641 4.817976 7.670659
v -1.668482 4.838031 7.642398
v -1.672641 4.817976 7.670659
v -1.748909 4.821367 7.731277
v -1.708317 4.858086 7.646558
v 1.796370 5.481915 11.751906
v 1.745939 5.431466 11.750899
v 1.782831 5.387074 11.825239
v 1.844872 5.462795 11.815782
v -2.105296 5.385838 11.825356
v -2.086707 5.430184 11.750899
v -2.161161 5.385825 11.769492
v 2.078392 5.236432 7.570066
v 2.217630 5.272818 7.558471
v 2.316280 5.302425 7.538695
v 2.313599 5.172597 7.522807
v 2.215716 5.143555 7.532249
v -2.161161 5.385825 7.706993
v -2.086707 5.430184 7.725586
v -2.105296 5.385838 7.651129
v 2.817894 5.324489 7.522526
v 2.808617 5.379718 7.472095
v 2.859048 5.404069 7.522526
v 2.817894 5.324489 11.953959
v 2.859048 5.404069 11.953959
v 2.808617 5.379718 12.004391
v 2.859048 5.758595 7.522526
v 2.859048 5.657731 7.522526
v 2.809006 5.597959 7.478344
v 2.809006 5.731241 7.478344
v 2.859048 5.758595 11.953959
v 2.809006 5.731241 11.998140
v 2.809006 5.597959 11.998140
v 2.859048 5.657731 11.953959
v 1.835518 9.000000 7.644400
v 1.845133 8.943533 7.591392
v 1.796370 8.917775 7.655221
v 1.835518 9.000000 11.832086
v 1.796370 8.917775 11.821264
v 1.845133 8.943533 11.885094
v 2.859048 9.365093 7.522526
v 2.808617 9.359187 7.472095
v 2.808924 9.409963 7.522526
v 2.859048 9.365093 11.953959
v 2.808924 9.409963 11.953959
v 2.808617 9.359187 12.004391
v 0.949569 0.949569 -11.223368
v 0.949569 1.050431 -11.223368
v 1.000000 1.050431 -11.172936
v 1.000000 0.949569 -11.172936
v 0.949569 -1.000000 -11.172936
v 0.949569 -0.949569 -11.223368
v 1.000000 -0.949569 -11.172936
v 1.000000 0.949569 -9.273800
v 1.000000 1.050431 -9.273800
v 0.949569 1.050431 -9.223369
v 0.949569 0.949569 -9.223369
v 1.000000 -0.949569 -9.273800
v 0.949569 -0.949569 -9.223369
v 0.949569 -1.000000 -9.273800
v -0.949569 0.949569 -11.223368
v -1.000000 0.949569 -11.172936
v -1.000000 1.050431 -11.172936
v -0.949569 1.050431 -11.223368
v -1.000000 -0.949569 -11.172936
v -0.949569 -0.949569 -11.223368
v -0.949569 -1.000000 -11.172936
v -1.000000 0.949569 -9.273800
v -0.949569 0.949569 -9.223369
v -0.949569 1.050431 -9.223369
v -1.000000 1.050431 -9.273800
v -0.949569 -1.000000 -9.273800
v -0.949569 -0.949569 -9.223369
v -1.000000 -0.949569 -9.273800
v 0.843806 4.480601 -8.952202
v 0.861318 4.460546 -9.048905
v 0.953653 4.476688 -9.011661
v 0.940509 4.500657 -8.887918
v -0.843806 4.480601 -8.952202
v -0.940509 4.500657 -8.887918
v -0.953653 4.476688 -9.011661
v -0.861318 4.460546 -9.048905
v 1.046272 4.404986 -11.201197
v 1.000000 4.334499 -11.172936
v 0.949569 4.334499 -11.223368
v 0.977829 4.404986 -11.269640
v -1.046272 4.404986 -11.201197
v -0.977829 4.404986 -11.269640
v -0.949569 4.334499 -11.223368
v -1.000000 4.334499 -11.172936
v 1.668482 4.838031 -8.127525
v 1.672641 4.817976 -8.155786
v 1.748910 4.821368 -8.216403
v 1.708318 4.858087 -8.131684
v -1.668482 4.838031 -8.127525
v -1.708318 4.858087 -8.131684
v -1.748910 4.821368 -8.216403
v -1.672641 4.817976 -8.155786
v 2.307302 4.962851 -12.439084
v 2.219875 4.913647 -12.374800
v 2.151432 4.913647 -12.443243
v 2.215716 4.982181 -12.475618
v 2.315645 5.027067 -12.472801
v -2.266147 4.984134 -12.422597
v -2.215716 4.982181 -12.475618
v -2.151432 4.913647 -12.443243
v -2.219875 4.913647 -12.374800
v 1.796370 5.481915 -8.209705
v 1.745939 5.431466 -8.210712
v 1.782831 5.387074 -8.136373
v 1.844872 5.462795 -8.145830
v -2.105296 5.385838 -8.136255
v -2.086707 5.430184 -8.210712
v -2.161161 5.385825 -8.192120
v 2.078392 5.236432 -12.391544
v 2.217630 5.272818 -12.403138
v 2.316280 5.302425 -12.422915
v 2.313599 5.172597 -12.438804
v 2.215716 5.143555 -12.429361
v -2.161161 5.385825 -12.254617
v -2.086707 5.430184 -12.236024
v -2.105296 5.385838 -12.310481
v 2.817894 5.324489 -12.439084
v 2.808617 5.379718 -12.489515
v 2.859048 5.404069 -12.439084
v 2.817894 5.324489 -8.007652
v 2.859048 5.404069 -8.007652
v 2.808617 5.379718 -7.957221
v 2.859048 5.758595 -12.439084
v 2.859048 5.657731 -12.439084
v 2.809006 5.597959 -12.483265
v 2.809006 5.731241 -12.483265
v 2.859048 5.758595 -8.007652
v 2.809006 5.731241 -7.963471
v 2.809006 5.597959 -7.963471
v 2.859048 5.657731 -8.007652
v 1.835518 9.000000 -12.317210
v 1.845133 8.943533 -12.370218
v 1.796370 8.917775 -12.306389
v 1.835518 9.000000 -8.129526
v 1.796370 8.917775 -8.140347
v 1.845133 8.943533 -8.076518
v 2.859048 9.365093 -12.439084
v 2.808617 9.359187 -12.489515
v 2.808924 9.409963 -12.439084
v 2.859048 9.365093 -8.007652
v 2.808924 9.409963 -8.007652
v 2.808617 9.359187 -7.957221
v 0.949569 0.949569 -4.357609
v 0.949569 1.050431 -4.357609
v 1.000000 1.050431 -4.307178
v 1.000000 0.949569 -4.307178
v 0.949569 -1.000000 -4.307178
v 0.949569 -0.949569 -4.357609
v 1.000000 -0.949569 -4.307178
v 1.000000 0.949569 -2.408041
v 1.000000 1.050431 -2.408041
v 0.949569 1.050431 -2.357609
v 0.949569 0.949569 -2.357609
v 1.000000 -0.949569 -2.408041
v 0.949569 -0.949569 -2.357609
v 0.949569 -1.000000 -2.408041
v -0.949569 0.949569 -4.357609
v -1.000000 0.949569 -4.307178
v -1.000000 1.050431 -4.307178
v -0.949569 1.050431 -4.357609
v -1.000000 -0.949569 -4.307178
v -0.949569 -0.949569 -4.357609
v -0.949569 -1.000000 -4.307178
v -1.000000 0.949569 -2.408041
v -0.949569 0.949569 -2.357609
v -0.949569 1.050431 -2.357609
v -1.000000 1.050431 -2.408041
v -0.949569 -1.000000 -2.408041
v -0.949569 -0.949569 -2.357609
v -1.000000 -0.949569 -2.408041
v 0.843806 4.480601 -2.086442
v 0.861318 4.460546 -2.183146
v 0.953652 4.476689 -2.145902
v 0.940509 4.500657 -2.022158
v -0.843806 4.480601 -2.086442
v -0.940509 4.500657 -2.022158
v -0.953652 4.476688 -2.145902
v -0.861318 4.460546 -2.183146
v 0.843806 4.480601 -4.628777
v 0.940509 4.500657 -4.693060
v 0.953653 4.476688 -4.569317
v 0.861318 4.460546 -4.532073
v -0.843806 4.480601 -4.628777
v -0.861318 4.460546 -4.532073
v -0.953653 4.476688 -4.569317
v -0.940509 4.500657 -4.693060
v 1.668482 4.838031 -1.261766
v 1.672641 4.817976 -1.290026
v 1.748909 4.821368 -1.350644
v 1.708317 4.858087 -1.265925
v -1.668482 4.838031 -1.261766
v -1.708317 4.858087 -1.265925
v -1.748909 4.821367 -1.350644
v -1.672641 4.817976 -1.290026
v 1.668482 4.838031 -5.453453
v 1.708317 4.858087 -5.449294
v 1.748909 4.821367 -5.364574
v 1.672641 4.817976 -5.425192
v -1.668482 4.838031 -5.453453
v -1.672641 4.817976 -5.425192
v -1.748909 4.821367 -5.364574
v -1.708317 4.858086 -5.449294
v 1.796370 5.481915 -1.343947
v 1.745939 5.431466 -1.344955
v 1.782831 5.387074 -1.270615
v 1.844872 5.462795 -1.280073
v -2.105296 5.385838 -1.270498
v -2.086707 5.430184 -1.344955
v -2.161161 5.385825 -1.326362
v 2.078392 5.236432 -5.525784
v 2.217630 5.272818 -5.537379
v 2.316280 5.302425 -5.557155
v 2.313599 5.172597 -5.573043
v 2.215716 5.143555 -5.563601
v -2.161161 5.385825 -5.388857
v -2.086707 5.430184 -5.370264
v -2.105296 5.385838 -5.444721
v 2.817894 5.324489 -5.573325
v 2.808617 5.379718 -5.623757
v 2.859048 5.404069 -5.573325
v 2.817894 5.324489 -1.141893
v 2.859048 5.404069 -1.141893
v 2.808617 5.379718 -1.091462
v 2.859048 5.758595 -5.573325
v 2.859048 5.657731 -5.573325
v 2.809006 5.597959 -5.617507
v 2.809006 5.731241 -5.617507
v 2.859048 5.758595 -1.141893
v 2.809006 5.731241 -1.097712
v 2.809006 5.597959 -1.097712
v 2.859048 5.657731 -1.141893
v 1.835518 9.000000 -5.451452
v 1.845133 8.943533 -5.504460
v 1.796370 8.917775 -5.440631
v 1.835518 9.000000 -1.263767
v 1.796370 8.917775 -1.274587
v 1.845133 8.943533 -1.210758
v 2.859048 9.365093 -5.573325
v 2.808617 9.359187 -5.623757
v 2.808924 9.409963 -5.573325
v 2.859048 9.365093 -1.141893
v 2.808924 9.409963 -1.141893
v 2.808617 9.359187 -1.091462
v 0.949569 0.949569 2.281410
v 0.949569 1.050431 2.281410
v 1.000000 1.050431 2.331841
v 1.000000 0.949569 2.331841
v 0.949569 -1.000000 2.331841
v 0.949569 -0.949569 2.281410
v 1.000000 -0.949569 2.331841
v 1.000000 0.949569 4.230978
v 1.000000 1.050431 4.230978
v 0.949569 1.050431 4.281410
v 0.949569 0.949569 4.281410
v 1.000000 -0.949569 4.230978
v 0.949569 -0.949569 4.281410
v 0.949569 -1.000000 4.230978
v -0.949569 0.949569 2.281410
v -1.000000 0.949569 2.331841
v -1.000000 1.050431 2.331841
v -0.949569 1.050431 2.281410
v -1.000000 -0.949569 2.331841
v -0.949569 -0.949569 2.281410
v -0.949569 -1.000000 2.331841
v -1.000000 0.949569 4.230978
v -0.949569 0.949569 4.281410
v -0.949569 1.050431 4.281410
v -1.000000 1.050431 4.230978
v -0.949569 -1.000000 4.230978
v -0.949569 -0.949569 4.281410
v -1.000000 -0.949569 4.230978
v 0.843806 4.480601 4.552577
v 0.861318 4.460546 4.455873
v 0.953653 4.476688 4.493118
v 0.940509 4.500657 4.616861
v -0.843806 4.480601 4.552577
v -0.940509 4.500657 4.616861
v -0.953653 4.476688 4.493118
v -0.861318 4.460546 4.455873
v 0.843806 4.480601 2.010243
v 0.940509 4.500657 1.945959
v 0.953652 4.476688 2.069702
v 0.861318 4.460546 2.106947
v -0.843806 4.480601 2.010243
v -0.861318 4.460546 2.106947
v -0.953652 4.476689 2.069702
v -0.940509 4.500657 1.945959
v 1.668482 4.838031 5.377254
v 1.672641 4.817976 5.348993
v 1.748909 4.821367 5.288375
v 1.708317 4.858086 5.373095
v -1.668482 4.838031 5.377254
v -1.708317 4.858087 5.373095
v -1.748909 4.821367 5.288375
v -1.672641 4.817976 5.348993
v 1.668482 4.838031 1.185567
v 1.708317 4.858087 1.189726
v 1.748909 4.821367 1.274445
v 1.672641 4.817976 1.213827
v -1.668482 4.838031 1.185567
v -1.672641 4.817976 1.213827
v -1.748909 4.821368 1.274445
v -1.708317 4.858087 1.189726
v 1.796370 5.481915 5.295073
v 1.745939 5.431466 5.294065
v 1.782831 5.387074 5.368405
v 1.844872 5.462795 5.358947
v -2.105296 5.385838 5.368523
v -2.086707 5.430184 5.294065
v -2.161161 5.385825 5.312659
v 2.078392 5.236432 1.113235
v 2.217630 5.272818 1.101640
v 2.316280 5.302425 1.081864
v 2.313599 5.172597 1.065975
v 2.215716 5.143555 1.075418
v -2.161161 5.385825 1.250161
v -2.086707 5.430184 1.268755
v -2.105296 5.385838 1.194297
v 2.817894 5.324489 1.065694
v 2.808617 5.379718 1.015262
v 2.859048 5.404069 1.065694
v 2.817894 5.324489 5.497126
v 2.859048 5.404069 5.497126
v 2.808617 5.379718 5.547558
v 2.859048 5.758595 1.065694
v 2.859048 5.657731 1.065694
v 2.809006 5.597959 1.021513
v 2.809006 5.731241 1.021513
v 2.859048 5.758595 5.497126
v 2.809006 5.731241 5.541307
v 2.809006 5.597959 5.541307
v 2.859048 5.657731 5.497126
v 1.835518 9.000000 1.187567
v 1.845133 8.943533 1.134559
v 1.796370 8.917775 1.198388
v 1.835518 9.000000 5.375253
v 1.796370 8.917775 5.364432
v 1.845133 8.943533 5.428261
v 2.859048 9.365093 1.065694
v 2.808617 9.359187 1.015262
v 2.808924 9.409963 1.065694
v 2.859048 9.365093 5.497126
v 2.808924 9.409963 5.497126
v 2.808617 9.359187 5.547558
v 2.078392 5.236432 11.906420
v 2.215716 5.143555 11.944237
v 2.313599 5.172597 11.953679
v 2.316280 5.302425 11.937791
v 2.217630 5.272818 11.918015
v -2.186264 5.236376 11.906318
v -2.242125 5.236376 11.850456
v -2.266147 5.141602 11.892334
v -2.215716 5.143555 11.944237
v -2.242125 5.236376 7.626029
v -2.186264 5.236376 7.570168
v -2.215716 5.143555 7.532249
v -2.266147 5.141602 7.584152
v 1.796370 5.481915 7.724578
v 1.844872 5.462795 7.660704
v 1.782831 5.387074 7.651247
v 1.745939 5.431466 7.725586
v 2.227000 9.317938 7.534678
v 2.316271 9.355293 7.522526
v 2.316579 9.304595 7.472998
v 2.217408 9.245900 7.486899
v 2.227000 9.317938 11.941808
v 2.217408 9.245900 11.989586
v 2.316579 9.304595 12.003488
v 2.316271 9.355293 11.953959
v 2.078392 5.236432 -8.055193
v 2.215716 5.143555 -8.017376
v 2.313599 5.172597 -8.007933
v 2.316280 5.302425 -8.023822
v 2.217630 5.272818 -8.043597
v -2.186264 5.236376 -8.055294
v -2.242125 5.236376 -8.111156
v -2.266147 5.141602 -8.069279
v -2.215716 5.143555 -8.017376
v -2.242125 5.236376 -12.335581
v -2.186264 5.236376 -12.391442
v -2.215716 5.143555 -12.429361
v -2.266147 5.141602 -12.377459
v 1.796370 5.481915 -12.237031
v 1.844872 5.462795 -12.300906
v 1.782831 5.387074 -12.310364
v 1.745939 5.431466 -12.236024
v 2.227000 9.317938 -12.426932
v 2.316271 9.355293 -12.439084
v 2.316579 9.304595 -12.488612
v 2.217408 9.245900 -12.474711
v 2.227000 9.317938 -8.019804
v 2.217408 9.245900 -7.972026
v 2.316579 9.304595 -7.958125
v 2.316271 9.355293 -8.007652
v 2.078392 5.236432 -1.189435
v 2.215716 5.143555 -1.151618
v 2.313599 5.172597 -1.142175
v 2.316280 5.302425 -1.158064
v 2.217630 5.272818 -1.177840
v -2.186264 5.236376 -1.189537
v -2.242125 5.236376 -1.245398
v -2.266147 5.141602 -1.203520
v -2.215716 5.143555 -1.151618
v -2.242125 5.236376 -5.469821
v -2.186264 5.236376 -5.525681
v -2.215716 5.143555 -5.563601
v -2.266147 5.141602 -5.511698
v 1.796370 5.481915 -5.371272
v 1.844872 5.462795 -5.435146
v 1.782830 5.387074 -5.444603
v 1.745939 5.431466 -5.370264
v 2.227000 9.317938 -5.561173
v 2.316271 9.355293 -5.573325
v 2.316579 9.304595 -5.622853
v 2.217408 9.245900 -5.608952
v 2.227000 9.317938 -1.154045
v 2.217408 9.245900 -1.106266
v 2.316579 9.304595 -1.092365
v 2.316271 9.355293 -1.141893
v 2.078392 5.236432 5.449585
v 2.215716 5.143555 5.487403
v 2.313599 5.172597 5.496845
v 2.316280 5.302425 5.480956
v 2.217630 5.272818 5.461181
v -2.186264 5.236376 5.449483
v -2.242125 5.236376 5.393623
v -2.266147 5.141602 5.435500
v -2.215716 5.143555 5.487403
v -2.242125 5.236376 1.169197
v -2.186264 5.236376 1.113337
v -2.215716 5.143555 1.075418
v -2.266147 5.141602 1.127320
v 1.796370 5.481915 1.267747
v 1.844872 5.462795 1.203872
v 1.782831 5.387074 1.194415
v 1.745939 5.431466 1.268755
v 2.227000 9.317938 1.077846
v 2.316271 9.355293 1.065694
v 2.316579 9.304595 1.016166
v 2.217408 9.245900 1.030067
v 2.227000 9.317938 5.484974
v 2.217408 9.245900 5.532753
v 2.316579 9.304595 5.546654
v 2.316271 9.355293 5.497126
v -1.046272 4.404986 8.760413
v -1.015074 4.421128 8.654725
v -0.922739 4.404986 8.691970
v -0.949569 4.334499 8.738242
v -1.000000 4.334499 8.788673
v 1.046272 4.404986 8.760413
v 1.000000 4.334499 8.788673
v 0.949569 4.334499 8.738242
v 0.922739 4.404986 8.691970
v 1.015074 4.421128 8.654725
v -2.266147 4.984134 7.539013
v -2.215716 4.982181 7.485991
v -2.026120 4.913647 7.518367
v -2.066712 4.876927 7.603086
v -2.219875 4.913647 7.586810
v 2.307302 4.962851 7.522526
v 2.219875 4.913647 7.586810
v 2.066712 4.876928 7.603086
v 2.026120 4.913647 7.518367
v 2.215716 4.982181 7.485991
v 2.315645 5.027067 7.488808
v 0.922739 4.404986 -9.177096
v 0.949569 4.334499 -9.223369
v 1.000000 4.334499 -9.273800
v 1.046272 4.404986 -9.245540
v 1.015074 4.421128 -9.139852
v -0.922739 4.404986 -9.177096
v -1.015074 4.421128 -9.139852
v -1.046272 4.404986 -9.245540
v -1.000000 4.334499 -9.273800
v -0.949569 4.334499 -9.223369
v 2.026121 4.913647 -8.003493
v 2.066712 4.876927 -8.088213
v 2.219875 4.913647 -8.071937
v 2.307302 4.962851 -8.007652
v 2.315645 5.027067 -7.973935
v 2.215716 4.982181 -7.971117
v -2.026120 4.913647 -8.003493
v -2.215716 4.982181 -7.971117
v -2.266147 4.984134 -8.024139
v -2.219875 4.913647 -8.071937
v -2.066712 4.876928 -8.088213
v 0.922739 4.404985 -2.311337
v 0.949569 4.334499 -2.357609
v 1.000000 4.334499 -2.408041
v 1.046272 4.404986 -2.379780
v 1.015074 4.421128 -2.274092
v -0.922739 4.404986 -2.311337
v -1.015074 4.421129 -2.274092
v -1.046272 4.404986 -2.379780
v -1.000000 4.334499 -2.408041
v -0.949569 4.334499 -2.357609
v -1.046272 4.404986 -4.335438
v -1.015074 4.421128 -4.441126
v -0.922739 4.404986 -4.403882
v -0.949569 4.334499 -4.357609
v -1.000000 4.334499 -4.307178
v 1.046272 4.404986 -4.335438
v 1.000000 4.334499 -4.307178
v 0.949569 4.334499 -4.357609
v 0.922739 4.404986 -4.403882
v 1.015074 4.421128 -4.441126
v 2.026121 4.913647 -1.137734
v 2.066713 4.876928 -1.222453
v 2.219875 4.913647 -1.206177
v 2.307302 4.962851 -1.141893
v 2.315645 5.027067 -1.108176
v 2.215716 4.982181 -1.105359
v -2.026121 4.913647 -1.137734
v -2.215716 4.982181 -1.105359
v -2.266147 4.984134 -1.158381
v -2.219875 4.913647 -1.206177
v -2.066713 4.876928 -1.222453
v -2.266147 4.984134 -5.556838
v -2.215716 4.982181 -5.609860
v -2.026120 4.913647 -5.577485
v -2.066712 4.876927 -5.492765
v -2.219875 4.913647 -5.509041
v 2.307302 4.962851 -5.573325
v 2.219875 4.913647 -5.509041
v 2.066712 4.876928 -5.492765
v 2.026120 4.913647 -5.577485
v 2.215716 4.982181 -5.609860
v 2.315645 5.027067 -5.607043
v 0.922739 4.404986 4.327682
v 0.949569 4.334499 4.281410
v 1.000000 4.334499 4.230978
v 1.046272 4.404986 4.259239
v 1.015074 4.421128 4.364927
v -0.922739 4.404986 4.327682
v -1.015074 4.421128 4.364927
v -1.046272 4.404986 4.259239
v -1.000000 4.334499 4.230978
v -0.949569 4.334499 4.281410
v -1.046272 4.404986 2.303581
v -1.015074 4.421128 2.197893
v -0.922739 4.404985 2.235137
v -0.949569 4.334499 2.281410
v -1.000000 4.334499 2.331841
v 1.046272 4.404986 2.303581
v 1.000000 4.334499 2.331841
v 0.949569 4.334499 2.281410
v 0.922739 4.404986 2.235138
v 1.015074 4.421129 2.197893
v 2.026120 4.913647 5.501286
v 2.066712 4.876927 5.416566
v 2.219875 4.913647 5.432842
v 2.307302 4.962851 5.497126
v 2.315645 5.027067 5.530844
v 2.215716 4.982181 5.533661
v -2.026120 4.913647 5.501286
v -2.215716 4.982181 5.533661
v -2.266147 4.984134 5.480639
v -2.219875 4.913647 5.432842
v -2.066712 4.876928 5.416566
v -2.266147 4.984134 1.082182
v -2.215716 4.982181 1.029159
v -2.026121 4.913647 1.061535
v -2.066713 4.876928 1.146254
v -2.219875 4.913647 1.129978
v 2.307302 4.962851 1.065694
v 2.219875 4.913647 1.129978
v 2.066713 4.876928 1.146254
v 2.026121 4.913647 1.061535
v 2.215716 4.982181 1.029159
v 2.315645 5.027067 1.031976
vn 0.7071 -0.0000 -0.7071
vn 0.5774 -0.5773 -0.5774
vn 0.7071 -0.0000 0.7071
vn 0.5773 -0.5774 0.5774
vn -0.7071 -0.0000 -0.7071
vn -0.5774 -0.5773 -0.5774
vn -0.7071 -0.0000 0.7071
vn -0.5773 -0.5774 0.5774
vn 0.5663 -0.5988 0.5663
vn -0.5663 -0.5988 0.5663
vn 0.0765 -0.9757 -0.2055
vn -0.0765 -0.9757 -0.2055
vn 0.2625 -0.7219 0.6402
vn -0.5177 -0.6975 0.4955
vn 0.4442 -0.7175 -0.5365
vn -0.4442 -0.7175 -0.5365
vn -0.5726 0.5511 0.6070
vn -0.3954 0.8292 0.3952
vn -0.1676 0.1767 -0.9699
vn -0.3953 0.8292 -0.3952
vn 0.7391 -0.3822 -0.5546
vn 0.7391 -0.3823 0.5546
vn 0.6618 -0.0000 -0.7496
vn 0.6618 -0.0000 0.7496
vn -0.8106 0.3215 -0.4895
vn -0.8106 0.3215 0.4895
vn 0.5325 0.5949 -0.6022
vn 0.5325 0.5949 0.6022
vn 0.5773 -0.5774 -0.5774
vn 0.5774 -0.5773 0.5774
vn -0.5773 -0.5774 -0.5774
vn -0.5774 -0.5773 0.5774
vn 0.0765 -0.9757 0.2055
vn -0.0765 -0.9757 0.2055
vn 0.5663 -0.5988 -0.5663
vn -0.5663 -0.5988 -0.5663
vn 0.4442 -0.7175 0.5365
vn -0.4442 -0.7175 0.5365
vn 0.2625 -0.7219 -0.6402
vn -0.5177 -0.6975 -0.4955
vn 0.7391 -0.3823 -0.5546
vn 0.7391 -0.3822 0.5546
vn 0.5774 -0.5774 -0.5773
vn 0.5773 -0.5774 0.5773
vn -0.5774 -0.5774 -0.5773
vn -0.5773 -0.5774 0.5773
vn -0.3953 0.8292 0.3952
vn 0.5774 -0.5774 -0.5774
vn -0.5774 -0.5774 -0.5774
vn -0.1676 0.1767 0.9699
vn -0.6406 0.4479 0.6237
vn -0.6406 0.4479 -0.6237
vn -0.5726 0.5511 -0.6070
vn -0.3973 0.5884 -0.7043
vn -0.3973 0.5884 0.7043
vn -0.3973 0.5884 -0.7042
vn -0.3756 -0.7350 -0.5646
vn 0.3756 -0.7350 -0.5646
vn -0.2399 -0.8207 -0.5186
vn 0.1668 -0.8004 -0.5758
vn 0.3756 -0.7350 0.5646
vn -0.3756 -0.7350 0.5646
vn 0.1668 -0.8004 0.5758
vn -0.2399 -0.8206 0.5186
vn -0.2399 -0.8206 -0.5186
vn -0.7071 -0.7071 -0.0000
vn -0.0000 -0.7071 -0.7071
vn -0.0000 -0.0000 1.0000
vn 1.0000 -0.0000 -0.0000
vn -0.0000 -0.7071 0.7071
vn -1.0000 -0.0000 -0.0000
vn -0.0000 -0.0000 -1.0000
vn 0.7071 -0.7071 -0.0000
vn -0.0000 -0.5488 0.8360
vn 0.8360 -0.5488 -0.0000
vn -0.8360 -0.5488 -0.0000
vn -0.0000 -0.5488 -0.8360
vn -0.0000 -0.4271 0.9042
vn 0.4905 -0.8715 -0.0000
vn -0.0000 -0.4271 -0.9042
vn -0.2072 -0.9561 -0.2072
vn 0.2072 -0.9561 -0.2072
vn 0.2072 -0.9561 0.2072
vn -0.2072 -0.9561 0.2072
vn -0.0000 0.3776 0.9259
vn -0.7072 0.7070 -0.0000
vn -0.9693 0.2457 -0.0000
vn -0.0000 0.3776 -0.9260
vn -0.7071 0.1948 0.6797
vn -0.7071 0.1948 -0.6797
vn -0.1257 0.2502 0.9600
vn -0.1257 0.2502 -0.9600
vn 0.8883 -0.4594 -0.0000
vn 0.6815 0.0091 0.7318
vn 0.6815 0.0091 -0.7318
vn 0.3672 -0.5338 -0.7617
vn 0.3672 -0.5338 0.7617
vn -0.1574 0.0611 -0.9856
vn -0.1574 0.0611 0.9856
vn -0.3860 0.9225 -0.0000
vn 0.6670 0.7451 -0.0000
vn -0.0783 0.6996 -0.7102
vn -0.0783 0.6996 0.7102
vn 0.6857 -0.0006 0.7279
vn -0.1604 -0.0170 0.9869
vn 0.6857 -0.0006 -0.7279
vn -0.1604 -0.0170 -0.9869
vn -0.0000 0.3776 0.9260
vn -0.0000 0.3776 -0.9259
vn -0.7071 0.1949 -0.6797
vn -0.0003 0.8589 0.5122
vn -0.5118 0.8591 -0.0000
vn -0.0003 0.8588 -0.5122
vn -0.9029 0.4299 -0.0000
vn -0.7952 -0.0121 0.6063
vn -0.7952 -0.0121 -0.6063
vn -0.0003 0.8588 0.5122
vn -0.1426 0.2377 0.9608
vn -0.5613 0.6082 0.5613
vn -0.5613 0.6082 -0.5613
vn -0.1426 0.2377 -0.9608
vn -0.5853 0.5003 -0.6381
vn -0.5853 0.5003 0.6380
vn -0.5853 0.5003 -0.6380
vn -0.1426 0.2376 -0.9608
vn -0.1426 0.2376 0.9608
vn -0.0000 -0.9792 -0.2031
vn -0.0000 0.2031 -0.9792
vn -0.0000 -0.9792 0.2031
vn -0.0000 0.2031 0.9792
vn -0.0000 -0.9175 -0.3977
vn -0.0000 -0.9175 0.3977
vn 0.9792 0.2031 -0.0000
vn 0.2031 -0.9792 -0.0000
vn -0.2031 -0.9792 -0.0000
vn -0.9792 0.2031 -0.0000
vn -0.0000 -1.0000 -0.0000
vn 0.3977 -0.9175 -0.0000
vn -0.3977 -0.9175 -0.0000
vn -0.0000 0.2756 0.9613
vn -0.1460 0.1081 0.9834
vn 0.5780 -0.8160 -0.0000
vn -0.0000 1.0000 -0.0000
vn -0.2648 -0.0182 0.9641
vn -0.0003 1.0000 -0.0000
vn -0.0001 0.4753 0.8798
vn -0.8793 0.4763 -0.0000
vn -0.0001 0.4753 -0.8798
vn -0.0000 0.2756 -0.9613
vn -0.1460 0.1081 -0.9834
vn -0.0575 -0.0094 -0.9983
vn -0.2648 -0.0182 -0.9641
vn -0.0575 -0.0094 0.9983
vn -0.6304 0.7763 -0.0000
vn -0.1103 0.9939 -0.0000
vn -0.0000 0.2755 -0.9613
vn -0.6304 0.7762 -0.0000
vt 0.618696 0.493696
vt 0.625000 0.493696
vt 0.625000 0.506304
vt 0.618696 0.506304
vt 0.368696 0.506304
vt 0.375000 0.496848
vt 0.379728 0.506304
vt 0.618696 0.743696
vt 0.625000 0.743696
vt 0.625000 0.756304
vt 0.618696 0.756304
vt 0.379728 0.743696
vt 0.375000 0.753152
vt 0.368696 0.743696
vt 0.618696 0.256304
vt 0.618696 0.243696
vt 0.625000 0.243696
vt 0.625000 0.256304
vt 0.125000 0.506304
vt 0.131304 0.500000
vt 0.131304 0.506304
vt 0.618696 0.006304
vt 0.618696 0.000000
vt 0.625000 0.000000
vt 0.625000 0.006304
vt 0.131304 0.743696
vt 0.131304 0.750000
vt 0.125000 0.743696
vt 0.625000 0.755882
vt 0.625000 0.756304
vt 0.625000 0.743696
vt 0.625000 0.744118
vt 0.625000 0.005104
vt 0.625000 0.006304
vt 0.625000 0.472744
vt 0.625000 0.479069
vt 0.625000 0.479050
vt 0.625000 0.472416
vt 0.625000 0.289815
vt 0.625000 0.277584
vt 0.625000 0.270950
vt 0.625000 0.288741
vt 0.625000 0.752782
vt 0.625000 0.754012
vt 0.625000 0.745988
vt 0.625000 0.747218
vt 0.625000 0.750000
vt 0.625000 0.003111
vt 0.625000 0.004012
vt 0.625000 0.484766
vt 0.625000 0.477464
vt 0.625000 0.484380
vt 0.625000 0.486512
vt 0.625000 0.286549
vt 0.625000 0.285513
vt 0.625000 0.265620
vt 0.625000 0.272536
vt 0.625000 0.739787
vt 0.628114 0.739767
vt 0.630700 0.744007
vt 0.625000 0.743404
vt 0.865949 0.744013
vt 0.864770 0.739768
vt 0.869209 0.740828
vt 0.627789 0.495504
vt 0.625000 0.499900
vt 0.625000 0.500000
vt 0.625000 0.500000
vt 0.625000 0.497218
vt 0.869209 0.509172
vt 0.864770 0.510232
vt 0.865949 0.505987
vt 0.625000 0.502782
vt 0.625000 0.500000
vt 0.625000 0.502782
vt 0.625000 0.750000
vt 0.625000 0.502782
vt 0.625000 0.500000
vt 0.625000 0.747218
vt 0.625000 0.750000
vt 0.625000 0.747218
vt 0.625000 0.509416
vt 0.625000 0.506422
vt 0.625000 0.509969
vt 0.625000 0.740584
vt 0.625000 0.740031
vt 0.625000 0.743578
vt 0.625000 0.500000
vt 0.625000 0.506304
vt 0.375000 0.496848
vt 0.618696 0.743696
vt 0.625000 0.743696
vt 0.379728 0.743696
vt 0.375000 0.753152
vt 0.618696 0.243696
vt 0.625000 0.243696
vt 0.131304 0.506304
vt 0.618696 0.006304
vt 0.625000 0.006304
vt 0.625000 0.777694
vt 0.625000 0.777584
vt 0.625000 0.770950
vt 0.625000 0.771450
vt 0.625000 0.960907
vt 0.625000 0.962461
vt 0.625000 0.979050
vt 0.625000 0.972416
vt 0.625000 0.505882
vt 0.625000 0.493696
vt 0.625000 0.494118
vt 0.625000 0.244118
vt 0.625000 0.255882
vt 0.625000 0.256304
vt 0.625000 0.766226
vt 0.625000 0.764291
vt 0.625000 0.765620
vt 0.625000 0.772536
vt 0.625000 0.965600
vt 0.625000 0.977464
vt 0.625000 0.984380
vt 0.625000 0.966416
vt 0.625000 0.502782
vt 0.625000 0.504012
vt 0.625000 0.495988
vt 0.625000 0.497218
vt 0.625000 0.247083
vt 0.625000 0.252782
vt 0.625000 0.254012
vt 0.625000 0.245988
vt 0.630700 0.744007
vt 0.625000 0.743404
vt 0.865949 0.744013
vt 0.627789 0.495504
vt 0.625000 0.499901
vt 0.625000 0.497218
vt 0.869209 0.509172
vt 0.864770 0.510232
vt 0.865949 0.505987
vt 0.625000 0.500000
vt 0.625000 0.502782
vt 0.625000 0.747218
vt 0.625000 0.747218
vt 0.625000 0.750000
vt 0.625000 0.750000
vt 0.625000 0.747218
vt 0.625000 0.509416
vt 0.625000 0.743578
vt 0.625000 0.750000
vt 0.625000 0.506304
vt 0.618696 0.506304
vt 0.368696 0.506304
vt 0.379728 0.506304
vt 0.625000 0.743696
vt 0.379728 0.743696
vt 0.618696 0.243696
vt 0.625000 0.243696
vt 0.125000 0.506304
vt 0.131304 0.506304
vt 0.618696 0.006304
vt 0.625000 0.006304
vt 0.131304 0.743696
vt 0.125000 0.743696
vt 0.625000 0.777461
vt 0.625000 0.777584
vt 0.625000 0.770950
vt 0.625000 0.771175
vt 0.625000 0.960524
vt 0.625000 0.961825
vt 0.625000 0.979050
vt 0.625000 0.972416
vt 0.625000 0.472306
vt 0.625000 0.478550
vt 0.625000 0.479050
vt 0.625000 0.472416
vt 0.625000 0.289093
vt 0.625000 0.277584
vt 0.625000 0.270950
vt 0.625000 0.287539
vt 0.625000 0.765713
vt 0.625000 0.763874
vt 0.625000 0.765620
vt 0.625000 0.772536
vt 0.625000 0.964496
vt 0.625000 0.977464
vt 0.625000 0.984380
vt 0.625000 0.965414
vt 0.625000 0.483774
vt 0.625000 0.484380
vt 0.625000 0.485709
vt 0.625000 0.284400
vt 0.625000 0.283584
vt 0.625000 0.265620
vt 0.625000 0.739787
vt 0.628114 0.739767
vt 0.630700 0.744007
vt 0.625000 0.743404
vt 0.865949 0.744013
vt 0.864770 0.739768
vt 0.869209 0.740828
vt 0.625000 0.500000
vt 0.625000 0.497218
vt 0.869209 0.509172
vt 0.864770 0.510232
vt 0.625000 0.500000
vt 0.625000 0.747218
vt 0.625000 0.747218
vt 0.625000 0.750000
vt 0.625000 0.506422
vt 0.625000 0.740584
vt 0.625000 0.740031
vt 0.625000 0.743578
vt 0.625000 0.747218
vt 0.625000 0.750000
vt 0.625000 0.506304
vt 0.618696 0.506304
vt 0.379728 0.506304
vt 0.618696 0.743696
vt 0.625000 0.743696
vt 0.379728 0.743696
vt 0.368696 0.743696
vt 0.618696 0.243696
vt 0.625000 0.243696
vt 0.618696 0.006304
vt 0.625000 0.006304
vt 0.131304 0.743696
vt 0.625000 0.777256
vt 0.625000 0.777584
vt 0.625000 0.770950
vt 0.625000 0.770931
vt 0.625000 0.960185
vt 0.625000 0.961259
vt 0.625000 0.979050
vt 0.625000 0.972416
vt 0.625000 0.472539
vt 0.625000 0.478825
vt 0.625000 0.479050
vt 0.625000 0.289476
vt 0.625000 0.277584
vt 0.625000 0.270950
vt 0.625000 0.288175
vt 0.625000 0.765234
vt 0.625000 0.763488
vt 0.625000 0.963450
vt 0.625000 0.977464
vt 0.625000 0.984380
vt 0.625000 0.964487
vt 0.625000 0.484287
vt 0.625000 0.477464
vt 0.625000 0.484380
vt 0.625000 0.486126
vt 0.625000 0.285504
vt 0.625000 0.284586
vt 0.625000 0.272536
vt 0.625000 0.739787
vt 0.630700 0.744007
vt 0.865949 0.744013
vt 0.869209 0.740828
vt 0.627789 0.495504
vt 0.865949 0.505987
vt 0.625000 0.502782
vt 0.625000 0.509416
vt 0.625000 0.506423
vt 0.625000 0.743577
vt 0.627789 0.754496
vt 0.625000 0.752782
vt 0.625000 0.750000
vt 0.625000 0.750099
vt 0.625000 0.001370
vt 0.625000 0.004555
vt 0.625000 0.002948
vt 0.625000 0.245445
vt 0.625000 0.251518
vt 0.625000 0.252086
vt 0.625000 0.247052
vt 0.625000 0.510213
vt 0.625000 0.506596
vt 0.630700 0.505993
vt 0.628114 0.510233
vt 0.625000 0.503444
vt 0.625000 0.500744
vt 0.625000 0.746556
vt 0.625000 0.749256
vt 0.625000 0.752782
vt 0.625000 0.750000
vt 0.625000 0.001370
vt 0.625000 0.004555
vt 0.625000 0.002948
vt 0.625000 0.245445
vt 0.625000 0.247052
vt 0.625000 0.510213
vt 0.625000 0.506596
vt 0.630700 0.505993
vt 0.628114 0.510233
vt 0.625000 0.503444
vt 0.625000 0.746556
vt 0.625000 0.749256
vt 0.625000 0.750000
vt 0.625000 0.747218
vt 0.627789 0.754496
vt 0.625000 0.750099
vt 0.625000 0.001370
vt 0.625000 0.004555
vt 0.625000 0.002948
vt 0.625000 0.247052
vt 0.625000 0.506596
vt 0.630701 0.505993
vt 0.625000 0.500744
vt 0.625000 0.749256
vt 0.625000 0.750099
vt 0.625000 0.001370
vt 0.625000 0.004555
vt 0.625000 0.002948
vt 0.625000 0.510213
vt 0.630700 0.505993
vt 0.628114 0.510233
vt 0.625000 0.500744
vt 0.625000 0.244118
vt 0.625000 0.255538
vt 0.625000 0.262323
vt 0.625000 0.506304
vt 0.625000 0.487677
vt 0.625000 0.494462
vt 0.625000 0.247083
vt 0.625000 0.252782
vt 0.625000 0.261041
vt 0.625000 0.254126
vt 0.625000 0.245988
vt 0.625000 0.504012
vt 0.625000 0.495874
vt 0.625000 0.488959
vt 0.625000 0.762323
vt 0.625000 0.744118
vt 0.625000 0.755538
vt 0.625000 0.005104
vt 0.625000 0.761041
vt 0.625000 0.754126
vt 0.625000 0.745988
vt 0.625000 0.003111
vt 0.625000 0.004012
vt 0.625000 0.762323
vt 0.625000 0.755538
vt 0.625000 0.005104
vt 0.625000 0.006304
vt 0.625000 0.255538
vt 0.625000 0.262323
vt 0.625000 0.243696
vt 0.625000 0.487677
vt 0.625000 0.761041
vt 0.625000 0.754126
vt 0.625000 0.003111
vt 0.625000 0.004012
vt 0.625000 0.247083
vt 0.625000 0.252782
vt 0.625000 0.254126
vt 0.625000 0.245988
vt 0.625000 0.504012
vt 0.625000 0.488959
vt 0.625000 0.762323
vt 0.625000 0.744118
vt 0.625000 0.755538
vt 0.625000 0.005104
vt 0.625000 0.006304
vt 0.625000 0.244118
vt 0.625000 0.262323
vt 0.625000 0.243696
vt 0.625000 0.505882
vt 0.625000 0.494462
vt 0.625000 0.761042
vt 0.625000 0.754126
vt 0.625000 0.003111
vt 0.625000 0.004012
vt 0.625000 0.247083
vt 0.625000 0.261041
vt 0.625000 0.495874
vt 0.625000 0.488959
vt 0.381304 0.000000
vt 0.381304 0.006304
vt 0.381304 0.256304
vt 0.381304 0.243696
vt 0.625000 0.993696
vt 0.618696 0.993696
vt 0.625000 0.994118
vt 0.625000 0.993696
vt 0.625000 0.997218
vt 0.625000 0.995988
vt 0.625000 0.995594
vt 0.625000 0.997218
vt 0.381304 0.006304
vt 0.625000 0.987677
vt 0.625000 0.997218
vt 0.625000 0.988959
vt 0.625000 0.997218
vt 0.381304 0.006304
vt 0.381304 0.243696
vt 0.625000 0.987677
vt 0.625000 0.997218
vt 0.625000 0.988959
vt 0.381304 0.006304
vt 0.381304 0.243696
vt 0.625000 0.987677
vt 0.625000 0.997218
vt 0.873675 0.745445
vt 0.870526 0.748630
vt 0.870526 0.501370
vt 0.873675 0.504555
vt 0.873675 0.745445
vt 0.870526 0.748630
vt 0.873675 0.504555
vt 0.873675 0.745445
vt 0.870526 0.748630
vt 0.870526 0.501370
vt 0.873675 0.504555
vt 0.625000 0.994462
vt 0.625000 0.995874
vt 0.625000 0.994462
vt 0.625000 0.995874
vt 0.625000 0.994462
vt 0.625000 0.995874
vt 0.381304 0.993696
s 0
usemtl Material.002
f 1/1/1 2/2/1 3/3/1 4/4/1
f 5/5/2 6/6/2 7/7/2
f 8/8/3 9/9/3 10/10/3 11/11/3
f 12/12/4 13/13/4 14/14/4
f 15/15/5 16/16/5 17/17/5 18/18/5
f 19/19/6 20/20/6 21/21/6
f 22/22/7 23/23/7 24/24/7 25/25/7
f 26/26/8 27/27/8 28/28/8
f 29/29/9 30/30/9 31/31/9 32/32/9
f 33/24/10 34/33/10 35/34/10 36/24/10
f 37/35/11 38/36/11 39/37/11 40/38/11
f 41/39/12 42/40/12 43/41/12 44/42/12
f 45/43/13 46/44/13 47/45/13 48/46/13 49/47/13
f 50/24/14 51/48/14 52/49/14 53/24/14
f 54/50/15 55/51/15 56/52/15 57/53/15
f 58/54/16 59/55/16 60/56/16 61/57/16
f 62/58/17 63/59/17 64/60/17 65/61/17
f 66/62/18 67/63/18 68/64/18
f 69/65/19 70/66/19 71/67/19 72/68/19 73/69/19
f 74/70/20 75/71/20 76/72/20
f 77/73/21 78/74/21 79/75/21
f 80/46/22 81/46/22 82/76/22
f 83/75/23 84/77/23 85/78/23 86/78/23
f 87/79/24 88/80/24 89/47/24 90/81/24
f 91/82/25 92/83/25 93/84/25
f 94/85/26 95/86/26 96/87/26
f 97/75/27 98/88/27 99/75/27
f 100/81/28 101/81/28 102/80/28
f 334/226/33 335/227/33 336/228/33 337/229/33
f 338/230/34 339/231/34 340/232/34 341/233/34
f 350/241/37 351/242/37 352/116/37 353/182/37
f 354/243/38 355/244/38 356/245/38 357/246/38
f 407/264/50 408/265/50 409/144/50 410/266/50 411/267/50
f 412/268/51 413/269/51 414/270/51 415/24/51
f 416/271/52 417/272/52 418/273/52 419/274/52
f 420/275/53 421/276/53 422/277/53 423/278/53
f 424/279/54 425/140/54 426/200/54 427/280/54
f 428/281/55 429/282/55 430/148/55 431/81/55
f 507/317/57 508/318/57 509/319/57 510/113/57 511/96/57
f 512/108/58 513/320/58 514/109/58 515/321/58 516/322/58
f 517/323/59 518/324/59 519/325/59 520/326/59 521/327/59
f 522/140/60 523/328/60 524/329/60 525/330/60 526/69/60 527/88/60
f 21/21/66 26/26/66 28/28/66 19/19/66
f 5/5/67 21/21/67 20/20/67 6/6/67
f 4/4/1 7/7/1 6/6/1 1/1/1
f 27/376/7 23/23/7 22/22/7 28/377/7
f 11/11/3 13/13/3 12/12/3 8/8/3
f 15/15/5 20/378/5 19/379/5 16/16/5
f 10/10/68 24/380/68 23/381/68 11/11/68
f 3/3/69 9/9/69 8/8/69 4/4/69
f 26/26/70 14/14/70 13/13/70 27/27/70
f 25/25/71 17/17/71 16/16/71 22/22/71
f 18/18/72 2/2/72 1/1/72 15/15/72
f 14/14/73 5/5/73 7/7/73 12/12/73
f 29/29/74 33/382/74 36/383/74 30/30/74
f 512/108/75 32/32/75 31/31/75 513/320/75
f 34/33/76 507/317/76 511/96/76 35/34/76
f 509/319/77 515/321/77 514/109/77 510/113/77
f 9/9/3 31/31/3 30/30/3 10/10/3
f 35/34/7 25/25/7 24/24/7 36/24/7
f 510/113/5 18/18/5 17/17/5 511/96/5
f 2/2/1 514/109/1 513/320/1 3/3/1
f 45/43/78 50/384/78 53/385/78 46/44/78
f 522/140/79 48/46/79 47/45/79 523/328/79
f 51/48/76 517/323/76 521/327/76 52/49/76
f 518/324/80 526/69/80 525/330/80 519/325/80
f 507/317/81 521/327/81 520/326/81 508/318/81
f 523/328/82 512/108/82 516/322/82 524/329/82
f 46/44/83 29/29/83 32/32/83 47/45/83
f 33/24/84 53/24/84 52/49/84 34/33/84
f 407/264/85 412/386/85 415/387/85 408/265/85
f 423/278/86 63/59/86 62/58/86 420/275/86
f 413/269/87 416/271/87 419/274/87 414/270/87
f 417/272/88 69/65/88 73/69/88 418/273/88
f 50/24/89 415/24/89 414/270/89 51/48/89
f 418/273/90 518/324/90 517/323/90 419/274/90
f 49/47/91 409/144/91 408/265/91 45/43/91
f 72/68/92 527/88/92 526/69/92 73/69/92
f 79/75/93 81/46/93 80/46/93 77/73/93
f 83/75/69 87/79/69 90/81/69 84/77/69
f 81/46/94 90/81/94 89/47/94 82/76/94
f 84/77/95 79/75/95 78/74/95 85/78/95
f 527/88/96 78/74/96 77/73/96 522/140/96
f 82/76/97 49/47/97 48/46/97 80/46/97
f 71/67/98 86/78/98 85/78/98 72/68/98
f 409/144/99 89/47/99 88/80/99 410/266/99
f 424/279/100 428/281/100 431/81/100 425/140/100
f 99/75/101 101/81/101 100/81/101 97/75/101
f 425/140/102 99/75/102 98/88/102 426/200/102
f 430/148/103 102/80/103 101/81/103 431/81/103
f 87/79/104 100/81/104 102/80/104 88/80/104
f 429/282/105 411/267/105 410/266/105 430/148/105
f 86/78/106 98/88/106 97/75/106 83/75/106
f 70/66/107 427/280/107 426/200/107 71/67/107
f 63/59/111 67/63/111 66/62/111 64/60/111
f 67/63/112 75/71/112 74/70/112 68/64/112
f 75/71/113 423/278/113 422/277/113 76/72/113
f 93/84/114 95/86/114 94/85/114 91/82/114
f 95/86/115 62/58/115 65/61/115 96/87/115
f 420/275/116 93/84/116 92/83/116 421/276/116
f 411/267/118 65/61/118 64/60/118 407/264/118
f 68/64/119 413/402/119 412/403/119 66/62/119
f 76/72/120 417/404/120 416/405/120 74/70/120
f 421/276/121 70/66/121 69/65/121 422/277/121
f 427/280/122 92/83/122 91/82/122 424/279/122
f 96/87/123 429/282/123 428/281/123 94/85/123
f 41/39/127 37/35/127 40/38/127 42/40/127
f 61/57/128 55/51/128 54/50/128 58/54/128
f 43/41/81 60/56/81 59/55/81 44/42/81
f 56/52/82 39/37/82 38/36/82 57/53/82
f 334/226/129 338/230/129 341/233/129 335/227/129
f 351/242/83 337/229/83 336/228/83 352/116/83
f 339/231/84 357/246/84 356/245/84 340/232/84
f 508/318/131 43/41/131 42/40/131 509/319/131
f 39/37/131 516/322/131 515/321/131 40/38/131
f 524/329/131 56/52/131 55/51/131 525/330/131
f 60/56/131 520/326/131 519/325/131 61/57/131
f 57/53/133 351/242/133 350/241/133 54/50/133
f 37/35/134 334/226/134 337/229/134 38/36/134
f 44/42/135 339/231/135 338/230/135 41/39/135
f 58/54/136 354/243/136 357/246/136 59/55/136
f 20/378/72 15/15/72 1/1/72 6/6/72
f 7/7/69 4/4/69 8/8/69 12/12/69
f 2/2/72 18/18/72 510/113/72 514/109/72
f 9/9/69 3/3/69 513/320/69 31/31/69
f 21/21/137 5/5/137 14/14/137 26/26/137
f 13/13/68 11/11/68 23/381/68 27/419/68
f 24/380/68 10/10/68 30/30/68 36/383/68
f 28/377/71 22/22/71 16/16/71 19/379/71
f 17/17/71 25/25/71 35/34/71 511/96/71
f 33/382/132 29/29/132 46/44/132 53/385/132
f 32/32/138 512/108/138 523/328/138 47/45/138
f 507/317/139 34/33/139 52/49/139 521/327/139
f 41/39/137 338/230/137 334/226/137 37/35/137
f 39/37/131 56/52/131 524/329/131 516/322/131
f 42/40/131 40/38/131 515/321/131 509/319/131
f 38/36/138 337/229/138 351/242/138 57/53/138
f 59/55/139 357/246/139 339/231/139 44/42/139
f 60/56/131 43/41/131 508/318/131 520/326/131
f 50/384/140 45/43/140 408/265/140 415/387/140
f 409/144/141 49/47/141 82/76/141 89/47/141
f 48/46/142 522/140/142 77/73/142 80/46/142
f 517/323/71 51/48/71 414/270/71 419/274/71
f 58/54/143 54/50/143 350/241/143 354/243/143
f 55/51/131 61/57/131 519/325/131 525/330/131
f 420/275/71 62/58/71 95/86/71 93/84/71
f 96/87/144 65/61/144 411/267/144 429/282/144
f 423/278/145 75/71/145 67/63/145 63/59/145
f 64/60/146 66/62/146 412/403/146 407/264/146
f 68/64/147 74/70/147 416/405/147 413/402/147
f 76/72/148 422/277/148 69/65/148 417/404/148
f 526/69/149 518/324/149 418/273/149 73/69/149
f 527/88/150 72/68/150 85/78/150 78/74/150
f 86/78/151 71/67/151 426/200/151 98/88/151
f 421/276/152 92/83/152 427/280/152 70/66/152
f 81/46/69 79/75/69 84/77/69 90/81/69
f 87/79/69 83/75/69 97/75/69 100/81/69
f 410/266/153 88/80/153 102/80/153 430/148/153
f 91/82/154 94/85/154 428/281/154 424/279/154
f 425/140/155 431/81/155 101/81/155 99/75/155
usemtl Material
f 103/1/1 104/2/1 105/89/1 106/4/1
f 107/5/29 108/90/29 109/7/29
f 110/91/3 111/92/3 112/10/3 113/11/3
f 114/93/30 115/94/30 116/14/30
f 117/15/5 118/95/5 119/96/5 120/18/5
f 121/19/31 122/20/31 123/97/31
f 124/98/7 125/23/7 126/24/7 127/99/7
f 128/26/32 129/27/32 130/28/32
f 131/100/33 132/101/33 133/102/33 134/103/33
f 135/104/34 136/105/34 137/106/34 138/107/34
f 139/108/35 140/89/35 141/109/35 142/110/35
f 143/111/36 144/112/36 145/113/36 146/96/36
f 147/114/37 148/115/37 149/116/37 150/117/37
f 151/118/38 152/119/38 153/120/38 154/121/38
f 155/122/39 156/123/39 157/124/39 158/125/39 159/78/39
f 160/126/40 161/127/40 162/128/40 163/129/40
f 164/58/17 165/59/17 166/130/17 167/131/17
f 168/132/18 169/63/18 170/64/18
f 171/133/19 172/134/19 173/67/19 174/78/19 175/135/19
f 176/136/20 177/137/20 178/138/20
f 179/122/41 180/139/41 181/140/41
f 182/141/42 183/142/42 184/76/42
f 185/122/23 186/140/23 187/78/23 188/78/23
f 189/46/24 190/143/24 191/144/24 192/145/24
f 193/146/25 194/83/25 195/84/25
f 196/85/26 197/86/26 198/147/26
f 199/122/27 200/88/27 201/122/27
f 202/46/28 203/46/28 204/148/28
f 241/171/11 242/172/11 243/173/11 244/174/11
f 245/175/12 246/176/12 247/177/12 248/178/12
f 257/187/15 258/51/15 259/188/15 260/189/15
f 261/190/16 262/191/16 263/192/16 264/57/16
f 432/264/50 433/283/50 434/80/50 435/284/50 436/267/50
f 437/285/51 438/286/51 439/287/51 440/24/51
f 441/288/52 442/272/52 443/273/52 444/289/52
f 445/290/53 446/291/53 447/292/53 448/293/53
f 449/294/54 450/260/54 451/74/54 452/280/54
f 453/295/55 454/296/55 455/297/55 456/298/55
f 528/331/61 529/30/61 530/31/61 531/332/61 532/333/61
f 533/24/62 534/24/62 535/334/62 536/99/62 537/24/62
f 538/335/63 539/336/63 540/337/63 541/141/63 542/47/63 543/43/63
f 544/24/64 545/24/64 546/338/64 547/339/64 548/24/64
f 123/97/66 128/26/66 130/28/66 121/19/66
f 107/5/67 123/97/67 122/20/67 108/90/67
f 106/4/1 109/7/1 108/90/1 103/1/1
f 129/376/7 125/23/7 124/98/7 130/388/7
f 113/11/3 115/94/3 114/93/3 110/91/3
f 117/15/5 122/378/5 121/379/5 118/95/5
f 112/10/68 126/380/68 125/381/68 113/11/68
f 105/89/69 111/92/69 110/91/69 106/4/69
f 128/26/70 116/14/70 115/94/70 129/27/70
f 127/99/71 119/96/71 118/95/71 124/98/71
f 120/18/72 104/2/72 103/1/72 117/15/72
f 116/14/73 107/5/73 109/7/73 114/93/73
f 528/331/74 533/389/74 537/383/74 529/30/74
f 139/108/75 531/332/75 530/31/75 140/89/75
f 535/334/76 143/111/76 146/96/76 536/99/76
f 144/112/77 142/110/77 141/109/77 145/113/77
f 111/92/3 530/31/3 529/30/3 112/10/3
f 536/99/7 127/99/7 126/24/7 537/24/7
f 145/113/5 120/18/5 119/96/5 146/96/5
f 104/2/1 141/109/1 140/89/1 105/89/1
f 543/43/78 545/390/78 544/391/78 538/335/78
f 155/122/79 541/141/79 540/337/79 156/123/79
f 546/338/76 160/126/76 163/129/76 547/339/76
f 161/127/80 158/125/80 157/124/80 162/128/80
f 143/111/81 163/129/81 162/128/81 144/112/81
f 156/123/82 139/108/82 142/110/82 157/124/82
f 539/336/83 532/333/83 531/332/83 540/337/83
f 534/24/84 548/24/84 547/339/84 535/334/84
f 432/264/108 437/386/108 440/392/108 433/283/108
f 448/293/86 165/59/86 164/58/86 445/290/86
f 438/286/87 441/288/87 444/289/87 439/287/87
f 442/272/109 171/133/109 175/135/109 443/273/109
f 545/24/89 440/24/89 439/287/89 546/338/89
f 443/273/90 161/127/90 160/126/90 444/289/90
f 542/47/91 434/80/91 433/283/91 543/43/91
f 174/78/92 159/78/92 158/125/92 175/135/92
f 181/140/93 183/142/93 182/141/93 179/122/93
f 185/122/69 189/46/69 192/145/69 186/140/69
f 183/142/94 192/145/94 191/144/94 184/76/94
f 186/140/95 181/140/95 180/139/95 187/78/95
f 159/78/96 180/139/96 179/122/96 155/122/96
f 184/76/97 542/47/97 541/141/97 182/141/97
f 173/67/98 188/78/98 187/78/98 174/78/98
f 434/80/99 191/144/99 190/143/99 435/284/99
f 449/294/100 453/295/100 456/298/100 450/260/100
f 201/122/101 203/46/101 202/46/101 199/122/101
f 450/260/102 201/122/102 200/88/102 451/74/102
f 455/297/103 204/148/103 203/46/103 456/298/103
f 189/46/104 202/46/104 204/148/104 190/143/104
f 454/296/105 436/267/105 435/284/105 455/297/105
f 188/78/106 200/88/106 199/122/106 185/122/106
f 172/134/107 452/280/107 451/74/107 173/67/107
f 165/59/117 169/63/117 168/132/117 166/130/117
f 169/63/112 177/137/112 176/136/112 170/64/112
f 177/137/113 448/293/113 447/292/113 178/138/113
f 195/84/114 197/86/114 196/85/114 193/146/114
f 197/86/115 164/58/115 167/131/115 198/147/115
f 445/290/116 195/84/116 194/83/116 446/291/116
f 436/267/118 167/131/118 166/130/118 432/264/118
f 170/64/119 438/406/119 437/407/119 168/132/119
f 178/138/120 442/404/120 441/408/120 176/136/120
f 446/291/121 172/134/121 171/133/121 447/292/121
f 452/280/124 194/83/124 193/146/124 449/294/124
f 198/147/123 454/296/123 453/295/123 196/85/123
f 131/100/129 135/104/129 138/107/129 132/101/129
f 150/117/130 152/119/130 151/118/130 147/114/130
f 148/115/83 134/103/83 133/102/83 149/116/83
f 136/105/84 154/121/84 153/120/84 137/106/84
f 245/175/127 241/171/127 244/174/127 246/176/127
f 532/333/132 133/102/132 132/101/132 528/331/132
f 137/106/132 534/413/132 533/389/132 138/107/132
f 548/414/132 153/120/132 152/119/132 544/391/132
f 149/116/132 539/336/132 538/335/132 150/117/132
f 147/114/133 257/187/133 260/189/133 148/115/133
f 134/103/134 242/172/134 241/171/134 131/100/134
f 154/121/136 262/191/136 261/190/136 151/118/136
f 135/104/135 245/175/135 248/178/135 136/105/135
f 122/378/72 117/15/72 103/1/72 108/90/72
f 109/7/69 106/4/69 110/91/69 114/93/69
f 104/2/72 120/18/72 145/113/72 141/109/72
f 111/92/69 105/89/69 140/89/69 530/31/69
f 123/97/137 107/5/137 116/14/137 128/26/137
f 115/94/68 113/11/68 125/381/68 129/419/68
f 126/380/68 112/10/68 529/30/68 537/383/68
f 130/388/71 124/98/71 118/95/71 121/379/71
f 119/96/71 127/99/71 536/99/71 146/96/71
f 131/100/137 241/171/137 245/175/137 135/104/137
f 132/101/132 138/107/132 533/389/132 528/331/132
f 134/103/138 148/115/138 260/189/138 242/172/138
f 149/116/132 133/102/132 532/333/132 539/336/132
f 137/106/132 153/120/132 548/414/132 534/413/132
f 154/121/139 136/105/139 248/178/139 262/191/139
f 531/332/138 139/108/138 156/123/138 540/337/138
f 142/110/131 144/112/131 162/128/131 157/124/131
f 143/111/139 535/334/139 547/339/139 163/129/139
f 147/114/143 151/118/143 261/190/143 257/187/143
f 152/119/132 150/117/132 538/335/132 544/391/132
f 541/141/142 155/122/142 179/122/142 182/141/142
f 158/125/156 161/127/156 443/273/156 175/135/156
f 159/78/150 174/78/150 187/78/150 180/139/150
f 160/126/71 546/338/71 439/287/71 444/289/71
f 445/290/71 164/58/71 197/86/71 195/84/71
f 198/147/144 167/131/144 436/267/144 454/296/144
f 448/293/145 177/137/145 169/63/145 165/59/145
f 166/130/146 168/132/146 437/407/146 432/264/146
f 170/64/147 176/136/147 441/408/147 438/406/147
f 178/138/148 447/292/148 171/133/148 442/404/148
f 188/78/151 173/67/151 451/74/151 200/88/151
f 446/291/152 194/83/152 452/280/152 172/134/152
f 183/142/69 181/140/69 186/140/69 192/145/69
f 434/80/141 542/47/141 184/76/141 191/144/141
f 189/46/69 185/122/69 199/122/69 202/46/69
f 435/284/153 190/143/153 204/148/153 455/297/153
f 193/146/154 196/85/154 453/295/154 449/294/154
f 450/260/155 456/298/155 203/46/155 201/122/155
f 545/390/140 543/43/140 433/283/140 440/392/140
usemtl Material.001
f 205/1/1 206/2/1 207/149/1 208/150/1
f 209/151/43 210/6/43 211/152/43
f 212/91/3 213/153/3 214/10/3 215/11/3
f 216/154/44 217/13/44 218/14/44
f 219/15/5 220/155/5 221/156/5 222/18/5
f 223/157/45 224/20/45 225/158/45
f 226/159/7 227/23/7 228/24/7 229/160/7
f 230/161/46 231/27/46 232/162/46
f 233/163/33 234/164/33 235/165/33 236/166/33
f 237/167/34 238/168/34 239/169/34 240/170/34
f 249/179/37 250/180/37 251/181/37 252/182/37
f 253/183/38 254/184/38 255/185/38 256/186/38
f 265/193/17 266/194/17 267/195/17 268/196/17
f 269/197/47 270/198/47 271/199/47
f 272/133/19 273/134/19 274/78/19 275/200/19 276/201/19
f 277/202/20 278/203/20 279/138/20
f 280/75/41 281/204/41 282/75/41
f 283/141/42 284/205/42 285/80/42
f 286/75/23 287/77/23 288/78/23 289/88/23
f 290/206/24 291/76/24 292/207/24 293/81/24
f 294/82/25 295/208/25 296/84/25
f 297/209/26 298/210/26 299/211/26
f 300/75/27 301/78/27 302/140/27
f 303/79/28 304/212/28 305/213/28
f 342/234/11 343/235/11 344/236/11 345/38/11
f 346/237/12 347/238/12 348/239/12 349/240/12
f 358/247/15 359/248/15 360/249/15 361/250/15
f 362/251/16 363/252/16 364/56/16 365/253/16
f 457/299/50 458/283/50 459/80/50 460/47/50 461/300/50
f 462/301/51 463/302/51 464/303/51 465/24/51
f 466/288/52 467/272/52 468/273/52 469/304/52
f 470/275/53 471/305/53 472/306/53 473/278/53
f 474/279/56 475/122/56 476/78/56 477/307/56
f 478/295/55 479/308/55 480/207/55 481/46/55
f 549/340/61 550/30/61 551/92/61 552/332/61 553/341/61
f 554/24/62 555/24/62 556/342/62 557/343/62 558/24/62
f 559/317/57 560/344/57 561/345/57 562/113/57 563/346/57
f 564/108/58 565/149/58 566/109/58 567/347/58 568/322/58
f 569/348/63 570/349/63 571/45/63 572/298/63 573/76/63 574/283/63
f 575/24/64 576/24/64 577/350/64 578/351/64 579/24/64
f 580/352/65 581/353/65 582/325/65 583/354/65 584/355/65
f 585/122/60 586/356/60 587/329/60 588/357/60 589/135/60 590/78/60
f 225/158/66 230/161/66 232/162/66 223/157/66
f 209/151/67 225/158/67 224/20/67 210/6/67
f 208/150/1 211/152/1 210/6/1 205/1/1
f 231/376/7 227/23/7 226/159/7 232/393/7
f 215/11/3 217/13/3 216/154/3 212/91/3
f 219/15/5 224/378/5 223/394/5 220/155/5
f 214/10/68 228/380/68 227/381/68 215/11/68
f 207/149/69 213/153/69 212/91/69 208/150/69
f 230/161/70 218/14/70 217/13/70 231/27/70
f 229/160/71 221/156/71 220/155/71 226/159/71
f 222/18/72 206/2/72 205/1/72 219/15/72
f 218/14/73 209/151/73 211/152/73 216/154/73
f 549/340/74 554/395/74 558/383/74 550/30/74
f 564/108/75 552/332/75 551/92/75 565/149/75
f 556/342/76 559/317/76 563/346/76 557/343/76
f 561/345/77 567/347/77 566/109/77 562/113/77
f 213/153/3 551/92/3 550/30/3 214/10/3
f 557/343/7 229/160/7 228/24/7 558/24/7
f 562/113/5 222/18/5 221/156/5 563/346/5
f 206/2/1 566/109/1 565/149/1 207/149/1
f 574/283/78 576/396/78 575/397/78 569/348/78
f 585/122/79 572/298/79 571/45/79 586/356/79
f 577/350/76 580/352/76 584/355/76 578/351/76
f 581/353/80 589/135/80 588/357/80 582/325/80
f 559/317/81 584/355/81 583/354/81 560/344/81
f 586/356/82 564/108/82 568/322/82 587/329/82
f 570/349/83 553/341/83 552/332/83 571/45/83
f 555/24/84 579/24/84 578/351/84 556/342/84
f 457/299/108 462/386/108 465/392/108 458/283/108
f 473/278/86 266/194/86 265/193/86 470/275/86
f 463/302/87 466/288/87 469/304/87 464/303/87
f 467/272/109 272/133/109 276/201/109 468/273/109
f 576/24/89 465/24/89 464/303/89 577/350/89
f 468/273/110 581/353/110 580/352/110 469/304/110
f 573/76/91 459/80/91 458/283/91 574/283/91
f 275/200/92 590/78/92 589/135/92 276/201/92
f 282/75/93 284/205/93 283/141/93 280/75/93
f 286/75/69 290/206/69 293/81/69 287/77/69
f 284/205/94 293/81/94 292/207/94 285/80/94
f 287/77/95 282/75/95 281/204/95 288/78/95
f 590/78/96 281/204/96 280/75/96 585/122/96
f 285/80/97 573/76/97 572/298/97 283/141/97
f 274/78/98 289/88/98 288/78/98 275/200/98
f 459/80/99 292/207/99 291/76/99 460/47/99
f 474/279/100 478/295/100 481/46/100 475/122/100
f 302/140/101 304/212/101 303/79/101 300/75/101
f 475/122/102 302/140/102 301/78/102 476/78/102
f 480/207/103 305/213/103 304/212/103 481/46/103
f 290/206/104 303/79/104 305/213/104 291/76/104
f 479/308/105 461/300/105 460/47/105 480/207/105
f 289/88/106 301/78/106 300/75/106 286/75/106
f 273/134/107 477/307/107 476/78/107 274/78/107
f 266/194/117 270/198/117 269/197/117 267/195/117
f 270/198/112 278/203/112 277/202/112 271/199/112
f 278/203/113 473/278/113 472/306/113 279/138/113
f 296/84/114 298/210/114 297/209/114 294/82/114
f 298/210/115 265/193/115 268/196/115 299/211/115
f 470/275/116 296/84/116 295/208/116 471/305/116
f 461/300/118 268/196/118 267/195/118 457/299/118
f 271/199/119 463/409/119 462/410/119 269/197/119
f 279/138/120 467/411/120 466/412/120 277/202/120
f 471/305/125 273/134/125 272/133/125 472/306/125
f 477/307/124 295/208/124 294/82/124 474/279/124
f 299/211/123 479/308/123 478/295/123 297/209/123
f 233/163/129 237/167/129 240/170/129 234/164/129
f 252/182/130 254/184/130 253/183/130 249/179/130
f 264/57/128 258/51/128 257/187/128 261/190/128
f 247/177/81 263/192/81 262/191/81 248/178/81
f 259/188/82 243/173/82 242/172/82 260/189/82
f 250/180/83 236/166/83 235/165/83 251/181/83
f 238/168/84 256/186/84 255/185/84 239/169/84
f 346/237/127 342/234/127 345/38/127 347/238/127
f 553/341/132 235/165/132 234/164/132 549/340/132
f 239/169/132 555/415/132 554/395/132 240/170/132
f 560/344/131 247/177/131 246/176/131 561/345/131
f 243/173/131 568/322/131 567/347/131 244/174/131
f 579/416/132 255/185/132 254/184/132 575/397/132
f 251/181/132 570/349/132 569/348/132 252/182/132
f 587/329/131 259/188/131 258/51/131 588/357/131
f 263/192/131 583/354/131 582/325/131 264/57/131
f 249/179/133 358/247/133 361/250/133 250/180/133
f 256/186/136 363/252/136 362/251/136 253/183/136
f 237/167/135 346/237/135 349/240/135 238/168/135
f 236/166/134 343/235/134 342/234/134 233/163/134
f 224/378/72 219/15/72 205/1/72 210/6/72
f 211/152/69 208/150/69 212/91/69 216/154/69
f 206/2/72 222/18/72 562/113/72 566/109/72
f 213/153/69 207/149/69 565/149/69 551/92/69
f 225/158/137 209/151/137 218/14/137 230/161/137
f 217/13/68 215/11/68 227/381/68 231/419/68
f 228/380/68 214/10/68 550/30/68 558/383/68
f 232/393/71 226/159/71 220/155/71 223/394/71
f 221/156/71 229/160/71 557/343/71 563/346/71
f 233/163/137 342/234/137 346/237/137 237/167/137
f 234/164/132 240/170/132 554/395/132 549/340/132
f 236/166/138 250/180/138 361/250/138 343/235/138
f 251/181/132 235/165/132 553/341/132 570/349/132
f 239/169/132 255/185/132 579/416/132 555/415/132
f 256/186/139 238/168/139 349/240/139 363/252/139
f 243/173/131 259/188/131 587/329/131 568/322/131
f 246/176/131 244/174/131 567/347/131 561/345/131
f 263/192/131 247/177/131 560/344/131 583/354/131
f 249/179/143 253/183/143 362/251/143 358/247/143
f 254/184/132 252/182/132 569/348/132 575/397/132
f 258/51/131 264/57/131 582/325/131 588/357/131
f 470/275/71 265/193/71 298/210/71 296/84/71
f 299/211/144 268/196/144 461/300/144 479/308/144
f 473/278/145 278/203/145 270/198/145 266/194/145
f 267/195/146 269/197/146 462/410/146 457/299/146
f 271/199/147 277/202/147 466/412/147 463/409/147
f 279/138/148 472/306/148 272/133/148 467/411/148
f 589/135/149 581/353/149 468/273/149 276/201/149
f 590/78/150 275/200/150 288/78/150 281/204/150
f 289/88/151 274/78/151 476/78/151 301/78/151
f 471/305/152 295/208/152 477/307/152 273/134/152
f 284/205/69 282/75/69 287/77/69 293/81/69
f 572/298/142 585/122/142 280/75/142 283/141/142
f 459/80/141 573/76/141 285/80/141 292/207/141
f 290/206/69 286/75/69 300/75/69 303/79/69
f 460/47/153 291/76/153 305/213/153 480/207/153
f 294/82/154 297/209/154 478/295/154 474/279/154
f 475/122/155 481/46/155 304/212/155 302/140/155
f 576/396/140 574/283/140 458/283/140 465/392/140
f 580/352/71 577/350/71 464/303/71 469/304/71
f 552/332/138 564/108/138 586/356/138 571/45/138
f 559/317/139 556/342/139 578/351/139 584/355/139
usemtl Material.003
f 306/1/1 307/2/1 308/214/1 309/215/1
f 310/151/48 311/90/48 312/216/48
f 313/217/3 314/218/3 315/10/3 316/11/3
f 317/219/30 318/94/30 319/220/30
f 320/15/5 321/221/5 322/222/5 323/18/5
f 324/19/49 325/20/49 326/21/49
f 327/223/7 328/23/7 329/24/7 330/224/7
f 331/225/32 332/27/32 333/162/32
f 366/254/17 367/59/17 368/255/17 369/196/17
f 370/256/47 371/63/47 372/257/47
f 373/258/19 374/134/19 375/78/19 376/78/19 377/135/19
f 378/136/20 379/203/20 380/259/20
f 381/140/21 382/200/21 383/260/21
f 384/141/42 385/145/42 386/148/42
f 387/77/23 388/75/23 389/200/23 390/88/23
f 391/46/24 392/80/24 393/80/24 394/145/24
f 395/261/25 396/262/25 397/84/25
f 398/85/26 399/86/26 400/263/26
f 401/122/27 402/74/27 403/140/27
f 404/46/28 405/46/28 406/213/28
f 482/299/50 483/43/50 484/80/50 485/80/50 486/309/50
f 487/310/51 488/311/51 489/312/51 490/24/51
f 491/271/52 492/272/52 493/273/52 494/304/52
f 495/313/53 496/305/53 497/314/53 498/315/53
f 499/279/54 500/122/54 501/74/54 502/316/54
f 503/295/55 504/282/55 505/148/55 506/298/55
f 591/358/61 592/30/61 593/31/61 594/359/61 595/360/61
f 596/24/62 597/24/62 598/361/62 599/362/62 600/24/62
f 601/363/57 602/344/57 603/364/57 604/113/57 605/365/57
f 606/366/58 607/89/58 608/109/58 609/321/58 610/367/58
f 611/368/63 612/369/63 613/45/63 614/141/63 615/80/63 616/265/63
f 617/24/64 618/24/64 619/370/64 620/371/64 621/24/64
f 622/372/65 623/353/65 624/373/65 625/354/65 626/355/65
f 627/140/60 628/356/60 629/374/60 630/375/60 631/135/60 632/78/60
f 326/21/66 331/225/66 333/162/66 324/19/66
f 310/151/67 326/21/67 325/20/67 311/90/67
f 309/215/1 312/216/1 311/90/1 306/1/1
f 332/376/7 328/23/7 327/223/7 333/398/7
f 316/11/3 318/94/3 317/219/3 313/217/3
f 320/15/5 325/378/5 324/399/5 321/221/5
f 315/10/68 329/380/68 328/381/68 316/11/68
f 308/214/69 314/218/69 313/217/69 309/215/69
f 331/225/70 319/220/70 318/94/70 332/27/70
f 330/224/71 322/222/71 321/221/71 327/223/71
f 323/18/72 307/2/72 306/1/72 320/15/72
f 319/220/73 310/151/73 312/216/73 317/219/73
f 591/358/74 596/400/74 600/383/74 592/30/74
f 606/366/75 594/359/75 593/31/75 607/89/75
f 598/361/76 601/363/76 605/365/76 599/362/76
f 603/364/77 609/321/77 608/109/77 604/113/77
f 314/218/3 593/31/3 592/30/3 315/10/3
f 599/362/7 330/224/7 329/24/7 600/24/7
f 604/113/5 323/18/5 322/222/5 605/365/5
f 307/2/1 608/109/1 607/89/1 308/214/1
f 616/265/78 618/392/78 617/397/78 611/368/78
f 627/140/79 614/141/79 613/45/79 628/356/79
f 619/370/76 622/372/76 626/355/76 620/371/76
f 623/353/80 631/135/80 630/375/80 624/373/80
f 601/363/81 626/355/81 625/354/81 602/344/81
f 628/356/82 606/366/82 610/367/82 629/374/82
f 612/369/83 595/360/83 594/359/83 613/45/83
f 597/24/84 621/24/84 620/371/84 598/361/84
f 482/299/108 487/386/108 490/401/108 483/43/108
f 498/315/86 367/59/86 366/254/86 495/313/86
f 488/311/87 491/271/87 494/304/87 489/312/87
f 492/272/88 373/258/88 377/135/88 493/273/88
f 618/24/89 490/24/89 489/312/89 619/370/89
f 493/273/90 623/353/90 622/372/90 494/304/90
f 615/80/91 484/80/91 483/43/91 616/265/91
f 376/78/92 632/78/92 631/135/92 377/135/92
f 383/260/93 385/145/93 384/141/93 381/140/93
f 387/77/69 391/46/69 394/145/69 388/75/69
f 385/145/94 394/145/94 393/80/94 386/148/94
f 388/75/95 383/260/95 382/200/95 389/200/95
f 632/78/96 382/200/96 381/140/96 627/140/96
f 386/148/97 615/80/97 614/141/97 384/141/97
f 375/78/98 390/88/98 389/200/98 376/78/98
f 484/80/99 393/80/99 392/80/99 485/80/99
f 499/279/100 503/295/100 506/298/100 500/122/100
f 403/140/101 405/46/101 404/46/101 401/122/101
f 500/122/102 403/140/102 402/74/102 501/74/102
f 505/148/103 406/213/103 405/46/103 506/298/103
f 391/46/104 404/46/104 406/213/104 392/80/104
f 504/282/105 486/309/105 485/80/105 505/148/105
f 390/88/106 402/74/106 401/122/106 387/77/106
f 374/134/107 502/316/107 501/74/107 375/78/107
f 367/59/111 371/63/111 370/256/111 368/255/111
f 371/63/112 379/203/112 378/136/112 372/257/112
f 379/203/113 498/315/113 497/314/113 380/259/113
f 397/84/114 399/86/114 398/85/114 395/261/114
f 399/86/115 366/254/115 369/196/115 400/263/115
f 495/313/116 397/84/116 396/262/116 496/305/116
f 486/309/126 369/196/126 368/255/126 482/299/126
f 372/257/119 488/409/119 487/407/119 370/256/119
f 380/259/120 492/404/120 491/412/120 378/136/120
f 496/305/125 374/134/125 373/258/125 497/314/125
f 502/316/124 396/262/124 395/261/124 499/279/124
f 400/263/123 504/282/123 503/295/123 398/85/123
f 353/182/130 355/244/130 354/243/130 350/241/130
f 365/253/128 359/248/128 358/247/128 362/251/128
f 348/239/81 364/56/81 363/252/81 349/240/81
f 360/249/82 344/236/82 343/235/82 361/250/82
f 595/360/132 336/228/132 335/227/132 591/358/132
f 340/232/132 597/417/132 596/400/132 341/233/132
f 602/344/131 348/239/131 347/238/131 603/364/131
f 344/236/131 610/367/131 609/321/131 345/38/131
f 621/418/132 356/245/132 355/244/132 617/397/132
f 352/116/132 612/369/132 611/368/132 353/182/132
f 629/374/131 360/249/131 359/248/131 630/375/131
f 364/56/131 625/354/131 624/373/131 365/253/131
f 325/378/72 320/15/72 306/1/72 311/90/72
f 312/216/69 309/215/69 313/217/69 317/219/69
f 307/2/72 323/18/72 604/113/72 608/109/72
f 314/218/69 308/214/69 607/89/69 593/31/69
f 326/21/137 310/151/137 319/220/137 331/225/137
f 318/94/68 316/11/68 328/381/68 332/419/68
f 329/380/68 315/10/68 592/30/68 600/383/68
f 333/398/71 327/223/71 321/221/71 324/399/71
f 322/222/71 330/224/71 599/362/71 605/365/71
f 335/227/132 341/233/132 596/400/132 591/358/132
f 352/116/132 336/228/132 595/360/132 612/369/132
f 340/232/132 356/245/132 621/418/132 597/417/132
f 344/236/131 360/249/131 629/374/131 610/367/131
f 347/238/131 345/38/131 609/321/131 603/364/131
f 364/56/131 348/239/131 602/344/131 625/354/131
f 355/244/132 353/182/132 611/368/132 617/397/132
f 359/248/131 365/253/131 624/373/131 630/375/131
f 495/313/71 366/254/71 399/86/71 397/84/71
f 400/263/144 369/196/144 486/309/144 504/282/144
f 498/315/145 379/203/145 371/63/145 367/59/145
f 368/255/146 370/256/146 487/407/146 482/299/146
f 372/257/147 378/136/147 491/412/147 488/409/147
f 380/259/148 497/314/148 373/258/148 492/404/148
f 631/135/149 623/353/149 493/273/149 377/135/149
f 632/78/150 376/78/150 389/200/150 382/200/150
f 390/88/151 375/78/151 501/74/151 402/74/151
f 496/305/152 396/262/152 502/316/152 374/134/152
f 385/145/69 383/260/69 388/75/69 394/145/69
f 614/141/142 627/140/142 381/140/142 384/141/142
f 484/80/141 615/80/141 386/148/141 393/80/141
f 391/46/69 387/77/69 401/122/69 404/46/69
f 485/80/153 392/80/153 406/213/153 505/148/153
f 395/261/157 398/85/157 503/295/157 499/279/157
f 500/122/155 506/298/155 405/46/155 403/140/155
f 618/392/140 616/265/140 483/43/140 490/401/140
f 622/372/71 619/370/71 489/312/71 494/304/71
f 594/359/138 606/366/138 628/356/138 613/45/138
f 601/363/139 598/361/139 620/371/139 626/355/139
